<?xml version="1.0" encoding="UTF-8"?><svg id="Livello_1" xmlns="http://www.w3.org/2000/svg" xmlns:xlink="http://www.w3.org/1999/xlink" viewBox="0 0 1024 1024"><defs><linearGradient id="Nuovo_campione_sfumatura_2" x1="231.93" y1="554.3" x2="231.93" y2="554.63" gradientUnits="userSpaceOnUse"><stop offset="0" stop-color="#6ab12e"/><stop offset=".24" stop-color="#5aa52d"/><stop offset=".72" stop-color="#3f932b"/><stop offset="1" stop-color="#358c2b"/></linearGradient><linearGradient id="Nuovo_campione_sfumatura_2-2" x1="221.73" y1="238.06" x2="221.73" y2="975" xlink:href="#Nuovo_campione_sfumatura_2"/><linearGradient id="Nuovo_campione_sfumatura_2-3" x1="221.73" y1="238.06" x2="221.73" y2="975" xlink:href="#Nuovo_campione_sfumatura_2"/><linearGradient id="Nuovo_campione_sfumatura_2-4" x1="794.46" y1="238.06" x2="794.46" y2="975" xlink:href="#Nuovo_campione_sfumatura_2"/><linearGradient id="Nuovo_campione_sfumatura_2-5" x1="509.85" y1="238.06" x2="509.85" y2="975" xlink:href="#Nuovo_campione_sfumatura_2"/></defs><rect x="-.61" y="0" width="1025.21" height="1024" transform="translate(1024 1024) rotate(-180)" style="fill:#fff;"/><g><line x1="231.93" y1="554.47" x2="231.93" y2="554.47" style="fill:url(#Nuovo_campione_sfumatura_2);"/><path d="M324.67,565.74c-2.46,.12-5-.42-7.4-1.79-92.34-52.79-2.93-193.66-94.7-216.2-5.27-1.29-10.35-1.97-15.23-2.16-.19,0-.37,0-.56,0,0,0,0,0,0,0-1.65-.06-3.3-.05-4.93,0-.08,0-.16,0-.24,.01-3.68,.13-7.31,.53-10.86,1.21,.08,.01,.16,.04,.24,.05-23.28,4.58-43.32,20.7-53.29,43.08-28.45,63.85-85.21,240.6,152.84,249.27,17.75,.65,33.23,10.1,42.27,24.15-3.42-33.59-6.24-66.23-8.15-97.62Z" style="fill:url(#Nuovo_campione_sfumatura_2-2);"/><line x1="231.93" y1="554.47" x2="231.93" y2="554.47" style="fill:url(#Nuovo_campione_sfumatura_2);"/><line x1="231.93" y1="554.47" x2="231.93" y2="554.47" style="fill:url(#Nuovo_campione_sfumatura_2);"/><path d="M324.67,565.74c-2.46,.12-5-.42-7.4-1.79-92.34-52.79-2.93-193.66-94.7-216.2-5.27-1.29-10.35-1.97-15.23-2.16-.19,0-.37,0-.56,0,0,0,0,0,0,0-1.65-.06-3.3-.05-4.93,0-.08,0-.16,0-.24,.01-3.68,.13-7.31,.53-10.86,1.21,.08,.01,.16,.04,.24,.05-23.28,4.58-43.32,20.7-53.29,43.08-28.45,63.85-85.21,240.6,152.84,249.27,17.75,.65,33.23,10.1,42.27,24.15-3.42-33.59-6.24-66.23-8.15-97.62Z" style="fill:url(#Nuovo_campione_sfumatura_2-3);"/><path d="M913.33,610.71c0-.66-.02-1.32-.04-1.98-.03-1.15-.06-2.31-.1-3.46-.02-.61-.05-1.22-.08-1.83-.05-1.2-.11-2.4-.19-3.6-.03-.55-.07-1.1-.1-1.65-.08-1.25-.17-2.49-.27-3.73-.04-.5-.08-1-.12-1.5-.11-1.3-.23-2.59-.36-3.87-.04-.43-.09-.86-.13-1.28-.14-1.36-.3-2.71-.46-4.06-.04-.35-.08-.7-.13-1.05-.18-1.41-.36-2.82-.56-4.22-.04-.28-.08-.56-.12-.84-.21-1.48-.43-2.95-.66-4.41-.03-.19-.06-.38-.09-.56-.25-1.55-.5-3.08-.77-4.61-.02-.1-.03-.19-.05-.29-3.18-18.14-7.64-34.33-11.57-46.6-9.17-28.65-34.46-49.59-64.39-51.69,0,0,0,0,0,0,0,0,0,0,0,0-1.62-.11-3.27-.15-4.95-.16-.39,0-.78,0-1.17,0-3,.03-6.08,.22-9.26,.64-85,11.23-29.18,139.57-97.12,194.67-11.14,9.03-25.84,5.83-33.52-3.71-3.36,33.21-7.32,67.35-11.57,102.14,9.37-8.44,22.15-12.94,35.58-11.37h0c3.4,.3,6.72,.55,10.01,.77,.59,.04,1.2,.09,1.79,.13,3.16,.2,6.26,.35,9.32,.48,.67,.03,1.36,.07,2.03,.09,2.97,.11,5.88,.18,8.77,.22,.71,.01,1.43,.03,2.14,.04,2.8,.03,5.54,.01,8.25-.02,.74,0,1.5-.01,2.24-.02,2.64-.05,5.23-.14,7.79-.25,.76-.03,1.52-.06,2.27-.09,2.51-.12,4.96-.28,7.39-.46,.75-.06,1.51-.11,2.25-.17,2.38-.19,4.7-.42,7-.66,.75-.08,1.5-.16,2.24-.24,2.26-.26,4.47-.55,6.65-.86,.73-.1,1.46-.21,2.18-.32,2.14-.32,4.25-.68,6.32-1.05,.71-.13,1.43-.26,2.13-.39,2.04-.39,4.03-.8,6-1.23,.69-.15,1.38-.31,2.06-.46,1.94-.45,3.84-.91,5.72-1.41,.66-.17,1.31-.35,1.96-.53,1.85-.51,3.66-1.03,5.44-1.58,.63-.19,1.25-.39,1.87-.59,1.76-.56,3.49-1.14,5.18-1.74,.6-.21,1.18-.43,1.77-.65,1.67-.62,3.32-1.25,4.93-1.91,.56-.23,1.11-.47,1.67-.7,1.59-.67,3.17-1.36,4.7-2.07,.52-.24,1.03-.49,1.55-.74,1.52-.73,3.02-1.47,4.48-2.24,.49-.26,.96-.52,1.44-.78,1.45-.78,2.88-1.58,4.26-2.4,.44-.26,.87-.53,1.31-.8,1.38-.84,2.75-1.69,4.07-2.56,.4-.27,.79-.54,1.18-.81,1.32-.9,2.63-1.8,3.89-2.74,.36-.26,.7-.54,1.05-.8,1.26-.96,2.51-1.92,3.71-2.91,.31-.26,.61-.52,.92-.78,1.21-1.02,2.41-2.05,3.55-3.1,.25-.23,.49-.47,.75-.71,1.17-1.09,2.32-2.2,3.43-3.32,.19-.2,.37-.4,.56-.6,1.14-1.18,2.26-2.37,3.33-3.59,.11-.13,.22-.27,.34-.4,1.13-1.29,2.23-2.59,3.28-3.92,.01-.02,.02-.03,.03-.05,7.82-9.86,13.61-20.7,17.79-32.09,.12-.32,.25-.64,.37-.97,.43-1.2,.82-2.41,1.22-3.63,.17-.51,.35-1.02,.51-1.53,.34-1.1,.65-2.21,.97-3.31,.18-.64,.38-1.27,.55-1.91,.28-1.03,.53-2.07,.78-3.11,.18-.72,.36-1.44,.53-2.17,.23-.98,.43-1.97,.63-2.95,.17-.79,.34-1.58,.49-2.38,.18-.94,.34-1.88,.5-2.83,.15-.85,.3-1.69,.43-2.54,.14-.91,.27-1.82,.4-2.73,.13-.89,.25-1.78,.37-2.68s.2-1.74,.3-2.6c.1-.94,.21-1.89,.3-2.83,.08-.83,.14-1.65,.21-2.48,.08-.99,.16-1.98,.22-2.97,.05-.78,.09-1.56,.13-2.35,.06-1.04,.11-2.08,.15-3.12,.03-.73,.05-1.47,.07-2.2,.03-1.09,.05-2.17,.07-3.26,0-.7,0-1.39,.01-2.09,0-1.12,0-2.23-.02-3.35Z" style="fill:url(#Nuovo_campione_sfumatura_2-4);"/><path d="M508.34,1024h-132.37c-33.75-314.7-101.37-635.25-2.04-766.68,29.56-42.48,79.73-70.3,135.41-70.3h1c55.68,0,105.85,27.81,135.41,70.3,99.33,131.43,31.71,451.98-2.04,766.68h-132.37s-3,0-3,0Z" style="fill:url(#Nuovo_campione_sfumatura_2-5);"/></g></svg>