<svg width="50" height="58" viewBox="0 0 50 58" fill="none" xmlns="http://www.w3.org/2000/svg">
<path fill-rule="evenodd" clip-rule="evenodd" d="M36.3019 0.154799C34.1526 0.534821 31.6848 1.68308 29.9692 3.10144C26.9797 5.57276 25.0922 9.4514 25.2156 12.8692C25.2299 13.2649 25.2634 13.61 25.29 13.636C25.3739 13.7181 26.8086 13.6712 27.4177 13.5664C30.088 13.1073 32.8229 11.2604 34.8959 8.51661C36.3175 6.63483 37.1062 4.8149 37.4078 2.72051C37.4975 2.09739 37.5356 0.338649 37.4635 0.152978C37.4164 0.0317065 36.9942 0.0323741 36.3019 0.154799ZM35.1644 13.7522C33.899 13.9105 32.4266 14.2637 30.9836 14.7551C26.6947 16.2158 26.1341 16.3845 25.5732 16.3833C24.9638 16.382 23.8199 16.0557 21.4132 15.1969C18.2026 14.0514 16.6591 13.7456 14.7998 13.887C10.149 14.2405 6.12011 16.6249 3.50367 20.5724C0.762229 24.7085 -0.0685824 30.158 1.07911 36.4749C1.8865 40.9187 3.93822 45.9971 6.38811 49.6158C7.08901 50.6511 8.16458 52.1 8.93367 53.0451C9.71252 54.0021 11.5526 55.8168 12.2165 56.2827C13.6767 57.3071 14.843 57.7188 16.2853 57.7188C17.5427 57.7188 18.7844 57.4252 20.9002 56.6278C22.8889 55.8782 24.0307 55.5928 25.5558 55.4638C27.4395 55.3045 29.1528 55.6227 31.7573 56.6155C33.6463 57.3356 34.705 57.5895 36.0252 57.6389C36.7091 57.6645 37.0414 57.6491 37.4522 57.5727C39.9952 57.0992 42.0593 55.4573 44.8603 51.6794C46.994 48.8016 48.3017 46.4322 49.4647 43.3366C49.6472 42.8509 49.7966 42.4251 49.7969 42.3904C49.7971 42.3556 49.5275 42.2007 49.1978 42.0462C47.1414 41.0825 45.0778 39.3124 43.7995 37.4157C42.411 35.3556 41.7421 33.0648 41.7435 30.3753C41.746 25.9702 43.6847 22.4912 47.5676 19.9242L48.2584 19.4676L47.875 18.9762C46.6305 17.3812 45.1369 16.1896 43.2494 15.2858C41.1558 14.2833 39.0052 13.7844 36.6093 13.7453C35.933 13.7343 35.2828 13.7374 35.1644 13.7522Z" fill="white"/>
</svg>
