<svg width="46" height="50" viewBox="0 0 46 50" fill="none" xmlns="http://www.w3.org/2000/svg">
<path fill-rule="evenodd" clip-rule="evenodd" d="M2.36086 0.695769C1.51494 1.07333 0.893078 2.01396 0.645287 3.29065C0.557147 3.74457 0.531647 10.0325 0.555151 25.4926L0.587968 47.0613L0.846735 47.6911C1.19664 48.543 1.7063 49.1699 2.30643 49.4867C2.75145 49.7215 2.90722 49.7446 3.74772 49.7005C4.53821 49.6589 4.83689 49.5849 5.60099 49.2414C6.16132 48.9894 6.58495 48.7216 6.70158 48.5456C6.80602 48.3883 11.1981 43.0517 16.4617 36.6864L26.032 25.1133L16.3745 13.4346C11.0629 7.01125 6.69415 1.69719 6.66621 1.62562C6.59326 1.4388 5.45919 0.87017 4.75307 0.666357C3.94717 0.433786 2.91953 0.446422 2.36086 0.695769ZM11.1973 4.28532C11.8372 5.15972 27.1826 23.5898 27.2497 23.5646C27.35 23.5267 33.0168 16.6965 33.0158 16.6146C33.0154 16.5847 32.4044 16.2133 31.6579 15.7894C30.3577 15.051 26.0222 12.5787 15.8417 6.77039C13.2553 5.29468 11.1197 4.08738 11.0958 4.08738C11.072 4.08738 11.1177 4.17649 11.1973 4.28532ZM32.6947 21.3522L29.5866 25.1095L32.7041 28.8741C34.4187 30.9446 35.8765 32.6178 35.9437 32.5923C36.0108 32.5667 37.7372 31.588 39.7799 30.4173C42.3267 28.9577 43.7093 28.097 44.179 27.679C45.971 26.0844 46.0047 24.0737 44.2657 22.512C43.8816 22.167 42.2752 21.1771 39.8377 19.7828C37.7338 18.5796 35.9654 17.595 35.9077 17.595C35.85 17.595 34.4041 19.2858 32.6947 21.3522ZM19.2527 36.1846C14.9018 41.4421 11.2425 45.8686 11.1206 46.0212L10.8991 46.2988L11.176 46.1286C11.3284 46.0349 16.2426 43.2209 22.0964 39.875C27.9503 36.5291 32.801 33.7375 32.8758 33.6713C32.98 33.579 32.3481 32.748 30.1764 30.1209C28.6168 28.2344 27.3009 26.6762 27.2519 26.6582C27.203 26.6402 23.6033 30.9271 19.2527 36.1846Z" fill="white"/>
</svg>
